<svg width="20" height="16" viewBox="0 0 20 16" fill="none" xmlns="http://www.w3.org/2000/svg">
<g id="Show">
<path id="Fill 1" opacity="0.4" fill-rule="evenodd" clip-rule="evenodd" d="M15.7366 2.04606C17.4439 3.36388 18.8976 5.29455 19.9415 7.70909C20.0195 7.89236 20.0195 8.10667 19.9415 8.28121C17.8537 13.1103 14.1366 16 10 16H9.99024C5.86341 16 2.14634 13.1103 0.0585366 8.28121C-0.0195122 8.10667 -0.0195122 7.89236 0.0585366 7.70909C2.14634 2.87903 5.86341 0 9.99024 0H10C12.0683 0 14.0293 0.717576 15.7366 2.04606ZM6.09756 8C6.09756 10.1333 7.8439 11.8691 10 11.8691C12.1463 11.8691 13.8927 10.1333 13.8927 8C13.8927 5.85697 12.1463 4.12121 10 4.12121C7.8439 4.12121 6.09756 5.85697 6.09756 8Z" fill="#09051C"/>
<path id="Fill 4" d="M12.4308 7.99687C12.4308 9.32536 11.3381 10.4114 10.0015 10.4114C8.65518 10.4114 7.5625 9.32536 7.5625 7.99687C7.5625 7.83203 7.58201 7.67784 7.61128 7.52269H7.66006C8.74299 7.52269 9.62104 6.66936 9.66006 5.60172C9.76738 5.5833 9.88445 5.57263 10.0015 5.57263C11.3381 5.57263 12.4308 6.65869 12.4308 7.99687Z" fill="#09051C"/>
</g>
</svg>
